<svg xmlns="http://www.w3.org/2000/svg" viewBox="0 0 512 512">
  <!-- Background -->
  <rect width="512" height="512" rx="96" fill="#0f4c75"/>

  <!-- Document body -->
  <rect x="138" y="108" width="200" height="256" rx="14" fill="#ffffff" opacity="0.97"/>

  <!-- Folded corner -->
  <path d="M298 108 L338 148 L298 148 Z" fill="#0f4c75" opacity="0.18"/>
  <path d="M298 108 L338 148 L298 148 Z" fill="#1b9aaa" opacity="0.35"/>

  <!-- Text lines -->
  <rect x="166" y="156" width="96" height="11" rx="5.5" fill="#0f4c75" opacity="0.18"/>
  <rect x="166" y="184" width="140" height="9" rx="4.5" fill="#0f4c75" opacity="0.13"/>
  <rect x="166" y="204" width="120" height="9" rx="4.5" fill="#0f4c75" opacity="0.13"/>
  <rect x="166" y="224" width="132" height="9" rx="4.5" fill="#0f4c75" opacity="0.13"/>

  <!-- Divider -->
  <rect x="166" y="250" width="144" height="1.5" rx="1" fill="#0f4c75" opacity="0.1"/>

  <!-- Price row -->
  <rect x="166" y="264" width="68" height="11" rx="5.5" fill="#0f4c75" opacity="0.13"/>
  <rect x="248" y="264" width="62" height="11" rx="5.5" fill="#1b9aaa" opacity="0.7"/>

  <rect x="166" y="284" width="88" height="9" rx="4.5" fill="#0f4c75" opacity="0.1"/>
  <rect x="166" y="300" width="72" height="9" rx="4.5" fill="#0f4c75" opacity="0.1"/>

  <!-- Checkmark badge -->
  <circle cx="256" cy="404" r="44" fill="#1b9aaa"/>
  <circle cx="256" cy="404" r="44" fill="white" opacity="0.1"/>
  <path d="M238 404 l12 12 l24-24" stroke="white" stroke-width="5" stroke-linecap="round" stroke-linejoin="round" fill="none"/>
</svg>
